<?xml version="1.0" encoding="UTF-8"?>
<svg width="1920px" height="1080px" viewBox="0 0 1920 1080" version="1.1" xmlns="http://www.w3.org/2000/svg" xmlns:xlink="http://www.w3.org/1999/xlink">
    <!-- Generator: Sketch 53.2 (72643) - https://sketchapp.com -->
    <title>dark_blue_wavy_background</title>
    <desc>Created with Sketch.</desc>
    <defs>
        <polygon id="path-1" points="0.640490837 -2.27373675e-13 1093 -2.27373675e-13 1093 1080 0.640490837 1080"></polygon>
        <polygon id="path-3" points="0.871114122 -2.27373675e-13 774 -2.27373675e-13 774 1080 0.871114122 1080"></polygon>
        <polygon id="path-5" points="0.54544639 -2.27373675e-13 748 -2.27373675e-13 748 1080 0.54544639 1080"></polygon>
        <polygon id="path-7" points="0.969995758 0 592 0 592 1080 0.969995758 1080"></polygon>
        <polygon id="path-9" points="0.445579804 -2.27373675e-13 510 -2.27373675e-13 510 1080 0.445579804 1080"></polygon>
        <polygon id="path-11" points="0 0 1523.8961 0 1523.8961 1080 0 1080"></polygon>
    </defs>
    <g id="Page-9" stroke="none" stroke-width="1" fill="none" fill-rule="evenodd">
        <g id="Group-197">
            <g id="dark_blue_wavy_background">
                <g id="Group-4">
                    <polygon id="Fill-1" fill="#000000" points="0 0 1920 0 1920 1080 0 1080"></polygon>
                    <polygon id="Fill-3" fill="#13255E" points="0 0 1920 0 1920 1080 0 1080"></polygon>
                </g>
                <g id="Group-7" transform="translate(827.000000, 0.000000)">
                    <mask id="mask-2" fill="white">
                        <use xlink:href="#path-1"></use>
                    </mask>
                    <g id="Clip-6"></g>
                    <path d="M1611.948,1411.866 L460.098,1411.866 C460.098,1411.866 30.3418,1365.2109 2.2195,1241.1781 C-25.9026,1117.14526 330.153,1079.62662 390.086,789.468 C426.918,611.1494 405.106,277.4872 641.654,57.239 C819.424,-108.283 483.138,-215.395 483.138,-215.395 L1611.162,-215.395 L1611.948,1411.866 Z" id="Fill-5" fill="#13255E" mask="url(#mask-2)"></path>
                </g>
                <g id="Group-10" transform="translate(1146.000000, 0.000000)">
                    <mask id="mask-4" fill="white">
                        <use xlink:href="#path-3"></use>
                    </mask>
                    <g id="Clip-9"></g>
                    <path d="M1385.494,1411.866 L233.644,1411.866 C233.644,1411.866 32.274,1365.2109 4.152,1241.1781 C-23.971,1117.14526 137.157,1063.61438 165.381,779.4242 C183.376,598.2329 208.224,400.2021 369.605,120.1664 C498.58,-103.635 256.684,-215.395 256.684,-215.395 L1384.708,-215.395 L1385.494,1411.866 Z" id="Fill-8" fill="#335CA0" mask="url(#mask-4)"></path>
                </g>
                <g id="Group-13" transform="translate(1172.000000, 0.000000)">
                    <mask id="mask-6" fill="white">
                        <use xlink:href="#path-5"></use>
                    </mask>
                    <g id="Clip-12"></g>
                    <path d="M1443.202,1411.866 L291.352,1411.866 C291.352,1411.866 31.202,1378.3535 3.08,1254.3207 C-25.043,1130.28784 189.879,1113.13416 202.442,867.2805 C211.735,685.435 233.58,406.7011 394.961,126.6653 C523.936,-97.136 314.391,-215.395 314.391,-215.395 L1442.416,-215.395 L1443.202,1411.866 Z" id="Fill-11" fill="#4A7FC5" mask="url(#mask-6)"></path>
                </g>
                <g id="Group-16" transform="translate(1328.000000, 0.000000)">
                    <mask id="mask-8" fill="white">
                        <use xlink:href="#path-7"></use>
                    </mask>
                    <g id="Clip-15"></g>
                    <path d="M1376.356,1411.866 L224.506,1411.866 C224.506,1411.866 31.745,1462.1344 3.623,1338.1015 C-24.499,1214.0687 180.811,969.6389 154.494,789.468 C128.177,609.2971 110.294,401.5285 271.676,121.4927 C400.65,-102.308 247.546,-215.395 247.546,-215.395 L1375.571,-215.395 L1376.356,1411.866 Z" id="Fill-14" fill="#63A4E1" mask="url(#mask-8)"></path>
                </g>
                <g id="Group-19" transform="translate(1410.000000, 0.000000)">
                    <mask id="mask-10" fill="white">
                        <use xlink:href="#path-9"></use>
                    </mask>
                    <g id="Clip-18"></g>
                    <path d="M1384.342,1411.866 L232.492,1411.866 C232.492,1411.866 31.122,1365.2109 3,1241.1781 C-25.122,1117.14523 188.797,969.6389 162.48,789.468 C136.163,609.2971 49.704,405.3145 211.085,125.2787 C340.06,-98.522 255.532,-215.395 255.532,-215.395 L1383.557,-215.395 L1384.342,1411.866 Z" id="Fill-17" fill="#96D6EA" mask="url(#mask-10)"></path>
                </g>
                <g id="Group-22">
                    <mask id="mask-12" fill="white">
                        <use xlink:href="#path-11"></use>
                    </mask>
                    <g id="Clip-21"></g>
                    <path d="M-89.11991,-215.405 L-88.33866,1411.8759 L1290.474,1411.8759 C1290.474,1411.8759 860.7212,1365.2212 832.5988,1241.1884 C804.4768,1117.15561 1160.541,1079.62827 1220.474,789.4697 C1257.306,611.151 1235.489,277.4994 1472.036,57.251 C1649.807,-108.271 1313.505,-215.405 1313.505,-215.405 L-89.11991,-215.405 Z" id="Fill-20" fill="#120638" mask="url(#mask-12)"></path>
                </g>
            </g>
        </g>
    </g>
</svg>