<?xml version="1.0" encoding="UTF-8"?>
<svg width="1920px" height="1080px" viewBox="0 0 1920 1080" version="1.1" xmlns="http://www.w3.org/2000/svg" xmlns:xlink="http://www.w3.org/1999/xlink">
    <!-- Generator: Sketch 53.2 (72643) - https://sketchapp.com -->
    <title>Group 2</title>
    <desc>Created with Sketch.</desc>
    <defs>
        <polygon id="path-1" points="0 0 1920 0 1920 1080 0 1080"></polygon>
        <polygon id="path-3" points="0.418721453 546 425 0.824229095 425 546"></polygon>
        <polygon id="path-5" points="291.591847 0 5.68434189e-14 703.388221 0 0 291.591847 0"></polygon>
        <polygon id="path-7" points="0.73 26.9359 45.855 0.3397 117 121.049 71.875 147.6453"></polygon>
        <polygon id="path-9" points="0.9005 21.3403 49.0638 0.7505 104.1412 129.5869 55.9779 150.1767"></polygon>
    </defs>
    <g id="Page-18" stroke="none" stroke-width="1" fill="none" fill-rule="evenodd">
        <g id="Group-82">
            <g id="Group-2">
                <g id="Group-5">
                    <mask id="mask-2" fill="white">
                        <use xlink:href="#path-1"></use>
                    </mask>
                    <g id="Clip-2"></g>
                    <polygon id="Fill-1" fill="#000000" mask="url(#mask-2)" points="0 0 1920 0 1920 1080 0 1080"></polygon>
                    <polygon id="Fill-3" fill="#120638" mask="url(#mask-2)" points="0 0 1920 0 1920 1080 0 1080"></polygon>
                    <path d="M0,-0.312 L0,1080 L1920,1080 L1920,-0.312 L0,-0.312 Z M1074.286,115.2774 C1155.119,115.2774 1532.113,22.702 1667.214,168.8715 C1812.437,325.993 1759.762,638.3283 1759.762,719.1635 C1759.762,799.9987 1498.356,955.2787 1436.683,1016.95209 C1375.01,1078.62549 924.5142,1139.47156 843.679,1139.47156 C762.8438,1139.47156 313.104,1038.02905 251.4307,976.3557 C189.7573,914.6823 20.32516,539.8643 187.9996,373.5958 C355.6741,207.3273 463.6237,163.443 525.2971,101.7696 C586.9705,40.096 993.4528,115.2774 1074.286,115.2774 Z" id="Fill-4" fill="#100531" mask="url(#mask-2)"></path>
                </g>
                <g id="Group">
                    <g id="Group-70" transform="translate(1495.000000, 534.000000)">
                        <mask id="mask-4" fill="white">
                            <use xlink:href="#path-3"></use>
                        </mask>
                        <g id="Clip-69"></g>
                        <path d="M538.691,-143.5305 C498.315,-91.6867 494.874,-17.2114 526.574,53.8622 C449.949,40.4733 378.653,61.9633 337.972,114.1981 C297.251,166.4853 293.892,240.9131 325.741,311.9875 C249.031,298.5167 177.647,320.061 136.924,372.3502 C96.137,424.7225 92.887,499.31824 124.901,570.49617 C47.922,557.05529 -23.928,578.88983 -64.406,630.86525 L-25.263,661.3499 C-17.465,651.337 -8.12,642.99203 2.435,636.2679 L196.397,787.3248 C192.465,799.207 186.661,810.3095 178.863,820.3225 L218.067,850.8543 C258.557,798.8633 262.042,723.8837 230.123,652.5402 C306.994,666.1641 378.601,644.72325 419.397,592.33919 C460.118,540.051996 463.464,465.51664 431.615,394.4422 C508.329,407.916 579.724,386.4743 620.445,334.1871 C661.127,281.9502 664.5,207.5619 632.751,136.5524 C709.424,149.8793 780.788,128.3024 821.164,76.4585 L781.96,45.9267 C774.795,55.1265 766.098,62.9587 756.193,69.4026 L561.384,-82.314 C565.206,-93.4953 570.669,-103.846 577.834,-113.0459 L538.691,-143.5305 Z M555.089,-49.8943 L726.363,83.4938 C689.082,95.5487 642.416,93.2949 595.49,75.0711 L595.416,74.9163 L595.248,74.8826 C566.088,33.8506 552.53,-10.7981 555.089,-49.8943 Z M563.706,115.6326 C592.943,156.7181 606.785,201.1929 604.236,240.3089 L432.901,106.8737 C470.201,94.8216 516.712,97.3528 563.706,115.6326 Z M403.071,120.9649 L597.88,272.6815 C594.025,283.9054 588.507,294.3258 581.242,303.6553 C574.113,312.8087 565.552,320.6128 555.845,327.0305 L360.733,175.0784 C364.578,164.0953 369.987,153.8361 377.116,144.6827 C384.382,135.3532 393.132,127.4533 403.071,120.9649 Z M354.196,207.3096 L526.196,341.2631 C488.776,353.5854 441.904,351.1688 394.604,332.7659 C365.18,291.4135 351.418,246.6115 354.196,207.3096 Z M362.706,373.7242 C391.694,414.4611 405.535,458.59099 403.283,497.46568 L232.855,364.7372 C269.994,353.0322 316.11,355.5993 362.706,373.7242 Z M202.783,378.64 L397.169,530.02671 C393.302,541.565019 387.636,552.251368 380.194,561.80741 C373.241,570.73424 364.969,578.37886 355.557,584.70558 L159.961,432.3765 C163.789,421.7033 169.115,411.7619 176.068,402.8348 C183.51,393.2788 192.543,385.2113 202.783,378.64 Z M153.243,464.46634 L326.09,599.07947 C288.517,611.74951 241.294,609.41268 193.603,590.85752 C163.935,549.162945 150.164,503.99791 153.243,464.46634 Z M161.375,632.2393 C190.179,672.7176 204.363,716.0535 202.39,754.6696 L32.628,622.45941 C69.585,611.08824 115.072,614.22462 161.375,632.2393 Z" id="Fill-68" fill-opacity="0.3376" fill="#96D6EA" mask="url(#mask-4)"></path>
                    </g>
                    <g id="Group-73">
                        <mask id="mask-6" fill="white">
                            <use xlink:href="#path-5"></use>
                        </mask>
                        <g id="Clip-72"></g>
                        <path d="M32.62239,-312.842 C7.458124,-252.14 23.91137,-179.423 73.34166,-119.315 C-4.087986,-111.882 -67.1212,-72.236 -92.4754,-11.076 C-117.8549,50.145 -101.3351,122.7939 -51.76128,182.8633 C-129.295,190.2399 -192.3983,229.9613 -217.7787,291.1849 C-243.1996,352.5059 -226.5297,425.2877 -176.7692,485.4131 C-254.5543,492.89 -318.0302,533.015 -343.2583,593.8712 L-297.4268,612.8708 C-292.5666,601.147 -285.7724,590.6207 -277.3809,581.3358 L-50.27769,675.4821 C-50.91449,687.9818 -53.56275,700.2267 -58.42291,711.9506 L-12.52057,730.9795 C12.71513,670.105 -3.829095,596.8905 -53.54225,536.5802 C24.18707,529.3087 87.53231,489.6279 112.959,428.2932 C138.3384,367.0719 121.7774,294.3228 72.20338,234.2533 C149.7416,226.8786 212.883,187.2532 238.2623,126.0319 C263.6173,64.87 247.1215,-7.745 197.6605,-67.778 C275.1202,-75.284 338.1959,-115.031 363.3601,-175.734 L317.4578,-194.762 C312.9923,-183.991 306.6862,-174.131 298.8475,-165.289 L70.75251,-259.846 C71.46889,-271.641 73.98851,-283.071 78.45389,-293.842 L32.62239,-312.842 Z M73.2893,-226.918 L273.8287,-143.784 C241.0858,-122.265 195.4959,-112.05 145.4155,-117.162 L145.3032,-117.292 L145.1321,-117.28 C106.1257,-149.098 81.20118,-188.546 73.2893,-226.918 Z M125.5401,-69.618 C164.6345,-37.769 189.7868,1.436 197.7129,39.825 L-2.897373,-43.338 C29.86517,-64.86 75.37908,-74.767 125.5401,-69.618 Z M-27.91616,-21.834 L200.1788,72.723 C199.4418,84.5681 196.8883,96.0793 192.36,107.003 C187.9171,117.7203 181.7347,127.5172 174.0797,136.2815 L-54.36948,41.577 C-53.57839,29.968 -51.08673,18.641 -46.64389,7.923 C-42.11547,-3 -35.77658,-12.94 -27.91616,-21.834 Z M-52.11604,74.387 L149.2734,157.8741 C116.4666,179.6882 70.63484,189.8013 20.14665,184.6154 C-19.19909,152.5577 -44.36092,113.0167 -52.11604,74.387 Z M0.2660858,232.572 C39.02903,264.1516 64.08822,303.0239 72.23668,341.1017 L-127.311,258.3786 C-94.61196,237.2343 -49.46917,227.467 0.2660858,232.572 Z M-152.6131,279.7656 L74.98598,374.1175 C74.32116,386.2683 71.6949,398.0754 67.05663,409.2642 C62.72367,419.7164 56.77766,429.2827 49.3827,437.8811 L-179.6332,342.9418 C-178.7765,331.6356 -176.2801,320.6368 -171.9472,310.1845 C-167.3089,298.9956 -160.7415,288.8196 -152.6131,279.7656 Z M-177.5922,375.664 L24.78894,459.5617 C-8.07259,481.7516 -54.2213,492.0347 -105.1273,486.8059 C-144.7988,454.483 -170.0659,414.5944 -177.5922,375.664 Z M-125.2135,535.2583 C-86.69682,566.6376 -61.51752,604.6533 -53.16866,642.4076 L-251.9371,560.0075 C-219.3252,539.2335 -174.6368,530.1818 -125.2135,535.2583 Z" id="Fill-71" fill-opacity="0.3376" fill="#96D6EA" mask="url(#mask-6)"></path>
                    </g>
                    <g id="Group-76" transform="translate(1714.000000, 132.000000)">
                        <mask id="mask-8" fill="white">
                            <use xlink:href="#path-7"></use>
                        </mask>
                        <g id="Clip-75"></g>
                        <path d="M2.1,27.2897 C6.795,35.2555 16.362,39.5592 27.303,39.0885 C21.586,48.4225 20.709,58.8639 25.439,66.8898 C30.175,74.9238 39.74,79.2143 50.688,78.7241 C44.957,88.0651 44.082,98.5208 48.818,106.555 C53.561,114.6021 63.154,118.8869 74.124,118.3806 C68.382,127.7583 67.522,138.29 72.229,146.276 L78.243,142.7312 C77.336,141.1927 76.728,139.5381 76.394,137.809 L106.197,120.2438 C107.548,121.3732 108.701,122.7071 109.607,124.2456 L115.631,120.6953 C110.923,112.7068 101.292,108.3712 90.304,108.8567 C96.064,99.5026 96.964,89.0232 92.22,80.9743 C87.485,72.9403 77.904,68.646 66.956,69.1362 C72.688,59.7949 73.577,49.343 68.842,41.3091 C64.111,33.2829 54.551,28.9926 43.617,29.4731 C49.328,20.1296 50.197,9.6748 45.502,1.7089 L39.478,5.2592 C40.311,6.6728 40.886,8.2161 41.217,9.8456 L11.284,27.4875 C10.019,26.4089 8.947,25.1584 8.114,23.7449 L2.1,27.2897 Z M15.201,29.9887 L41.517,14.4781 C41.166,19.9802 38.456,25.9701 33.644,31.1678 L33.62,31.1694 L33.606,31.1897 C26.728,32.8824 20.184,32.3464 15.201,29.9887 Z M37.307,37.4255 C44.196,35.7255 50.732,36.2154 55.718,38.5728 L29.393,54.0889 C29.746,48.5844 32.483,42.6292 37.307,37.4255 Z M29.693,58.7214 L59.626,41.0795 C60.895,42.1647 61.973,43.4259 62.818,44.8594 C63.647,46.2658 64.225,47.7899 64.563,49.3921 L34.584,67.0614 C33.345,65.9901 32.283,64.7514 31.454,63.345 C30.609,61.9115 30.028,60.3578 29.693,58.7214 Z M38.463,69.5846 L64.891,54.0082 C64.567,59.5425 61.826,65.5509 56.97,70.7882 C50.037,72.4988 43.462,71.9816 38.463,69.5846 Z M60.68,77.0814 C67.51,75.3958 74.001,75.868 78.971,78.1742 L52.785,93.6081 C53.175,88.1426 55.897,82.2409 60.68,77.0814 Z M53.048,98.2625 L82.916,80.6589 C84.226,81.7619 85.331,83.0563 86.196,84.5246 C87.005,85.8962 87.577,87.3742 87.918,88.9332 L57.864,106.6463 C56.666,105.5933 55.641,104.3819 54.832,103.0102 C53.967,101.5419 53.378,99.9425 53.048,98.2625 Z M61.716,109.1859 L88.274,93.5328 C87.988,99.105 85.239,105.1635 80.343,110.4441 C73.352,112.1689 66.73,111.6341 61.716,109.1859 Z M84.091,116.8024 C90.878,115.1276 97.283,115.5138 102.234,117.77 L76.15,133.1437 C76.574,127.7193 79.338,121.9293 84.091,116.8024 Z" id="Fill-74" fill-opacity="0.1642" fill="#96D6EA" mask="url(#mask-8)"></path>
                    </g>
                    <g id="Group-79" transform="translate(384.000000, 798.000000)">
                        <mask id="mask-10" fill="white">
                            <use xlink:href="#path-9"></use>
                        </mask>
                        <g id="Clip-78"></g>
                        <path d="M2.2131,21.8667 C5.8478,30.3688 14.7843,35.8639 25.6949,36.8001 C18.8285,45.324 16.6199,55.5667 20.2819,64.133 C23.9477,72.7079 32.884,78.1896 43.8048,79.1076 C36.9224,87.6363 34.7145,97.8936 38.3804,106.4688 C42.0521,115.0576 51.0165,120.5373 61.9613,121.442 C55.0644,130.0059 52.8605,140.3403 56.5043,148.8641 L62.9237,146.1198 C62.2217,144.4777 61.8304,142.7588 61.7212,141.0011 L93.53,127.4029 C94.7254,128.6962 95.6974,130.1669 96.3994,131.809 L102.8286,129.0605 C99.1836,120.5342 90.188,114.9993 79.2293,114.0717 C86.1414,105.5336 88.3772,95.256 84.7047,86.6652 C81.0389,78.0903 72.0885,72.6029 61.1677,71.685 C68.0507,63.1559 70.272,52.9043 66.6062,44.3294 C62.944,35.7628 54.0135,30.282 43.1074,29.3563 C49.9695,20.8223 52.1721,10.5653 48.5374,2.0631 L42.1082,4.8116 C42.7531,6.3203 43.1254,7.9247 43.2444,9.5831 L11.2966,23.2407 C10.18,22.0087 9.2774,20.6312 8.6325,19.1224 L2.2131,21.8667 Z M14.8601,26.2236 L42.9483,14.2159 C41.8941,19.6275 38.4389,25.2205 32.9994,29.758 L32.9753,29.7566 L32.9597,29.775 C25.9214,30.5717 19.5001,29.2009 14.8601,26.2236 Z M35.8298,36.4339 C42.88,35.6314 49.2992,36.9553 53.9423,39.9329 L25.8441,51.9448 C26.9,46.531 30.3788,40.976 35.8298,36.4339 Z M25.5481,56.5776 L57.4958,42.9199 C58.6154,44.1589 59.5229,45.5479 60.177,47.0779 C60.8187,48.579 61.1967,50.1647 61.326,51.797 L29.3286,65.4759 C28.2379,64.2545 27.343,62.8899 26.7012,61.3888 C26.0472,59.8588 25.6702,58.2433 25.5481,56.5776 Z M32.8524,68.4757 L61.0597,56.4171 C60.0289,61.8641 56.5396,67.4714 51.0526,72.0427 C43.9569,72.8501 37.5028,71.494 32.8524,68.4757 Z M53.9241,78.7597 C60.9144,77.964 67.291,79.2647 71.9247,82.1892 L43.9753,94.1375 C45.0629,88.7672 48.5193,83.2633 53.9241,78.7597 Z M43.6396,98.7872 L75.5179,85.1593 C76.6754,86.4211 77.6055,87.8466 78.2754,89.4137 C78.9013,90.8777 79.2793,92.4169 79.4175,94.0067 L47.3407,107.7195 C46.2871,106.5214 45.4256,105.1885 44.7997,103.7245 C44.1298,102.1574 43.7515,100.4957 43.6396,98.7872 Z M50.8347,110.732 L79.181,98.614 C78.1826,104.1035 74.6792,109.7594 69.1468,114.3686 C61.9924,115.1826 55.493,113.8029 50.8347,110.732 Z M72.048,121.155 C78.9939,120.3644 85.2962,121.5687 89.917,124.4413 L62.0768,136.3429 C63.1931,131.0178 66.6768,125.63 72.048,121.155 Z" id="Fill-77" fill-opacity="0.1642" fill="#96D6EA" mask="url(#mask-10)"></path>
                    </g>
                </g>
            </g>
        </g>
    </g>
</svg>