<?xml version="1.0" encoding="UTF-8"?>
<svg width="1027px" height="304px" viewBox="0 0 1027 304" version="1.1" xmlns="http://www.w3.org/2000/svg" xmlns:xlink="http://www.w3.org/1999/xlink">
    <!-- Generator: Sketch 53.2 (72643) - https://sketchapp.com -->
    <title>People</title>
    <desc>Created with Sketch.</desc>
    <defs>
        <polygon id="path-1" points="0.691054381 0.8698 109.229773 0.8698 109.229773 266 0.691054381 266"></polygon>
        <polygon id="path-3" points="0.715154534 0.0933 109.253942 0.0933 109.253942 222 0.715154534 222"></polygon>
        <polygon id="path-5" points="0.120192792 0.6177 118.337678 0.6177 118.337678 224 0.120192792 224"></polygon>
        <polygon id="path-7" points="0.912063652 0.527 109.450842 0.527 109.450842 210 0.912063652 210"></polygon>
        <polygon id="path-9" points="0.189254381 0.8029 108.728139 0.8029 108.728139 103 0.189254381 103"></polygon>
        <polygon id="path-11" points="0.125743405 0.9392 135.133484 0.9392 135.133484 301 0.125743405 301"></polygon>
        <polygon id="path-13" points="0.515630003 0.4956 142.53387 0.4956 142.53387 253 0.515630003 253"></polygon>
        <polygon id="path-15" points="0.28243133 0.2739 142.331731 0.2739 142.331731 296 0.28243133 296"></polygon>
        <polygon id="path-17" points="0.960982051 0.6874 142.980331 0.6874 142.980331 227 0.960982051 227"></polygon>
        <polygon id="path-19" points="0.546277592 0.2826 132.103003 0.2826 132.103003 304 0.546277592 304"></polygon>
        <polygon id="path-21" points="0.342292792 0.6177 118.559874 0.6177 118.559874 224 0.342292792 224"></polygon>
        <polygon id="path-23" points="0.727285131 0.5007 109.266042 0.5007 109.266042 243 0.727285131 243"></polygon>
    </defs>
    <g id="Page-4" stroke="none" stroke-width="1" fill="none" fill-rule="evenodd">
        <g id="Group-160" transform="translate(-90.000000, -834.000000)">
            <g id="People" transform="translate(90.000000, 834.000000)">
                <g id="Group-74" transform="translate(408.000000, 38.000000)">
                    <mask id="mask-2" fill="white">
                        <use xlink:href="#path-1"></use>
                    </mask>
                    <g id="Clip-73"></g>
                    <path d="M54.9407,0.8698 C40.8127,0.8698 29.3801,19.7256 29.3799,37.0973 C29.3799,41.8406 30.3346,55.087 31.8688,59.9716 C8.9826,73.0803 -1.999,113.0299 1.2513,144.239 C2.8815,159.8717 19.0614,159.5959 17.4095,143.8044 C15.9544,129.7634 19.7643,104.6365 28.1552,90.4311 C28.2593,99.306 31.3061,108.768 31.1577,117.6511 C31.0094,126.5342 24.9157,138.1268 24.9157,148.1897 C24.9157,154.46 26.9923,174.9735 28.8268,199.66666 C30.6614,224.36004 32.2399,253.22407 31.3948,273.662391 C30.6398,291.83354 49.4899,291.92037 50.2394,273.820418 C50.8959,257.80731 50.9953,162.412 54.5061,162.412 C54.6577,162.412 55.2631,162.412 55.4147,162.412 C58.9255,162.412 59.0249,257.80731 59.6814,273.820418 C60.4308,291.92039 79.2811,291.83329 78.5261,273.662391 C77.681,253.22401 79.2595,224.36004 81.094,199.66666 C82.9286,174.97342 85.0051,154.4602 85.0051,148.1897 C85.0051,138.1268 78.9115,126.5342 78.7631,117.6511 C78.6147,108.768 81.6614,99.306 81.7656,90.4311 C90.1565,104.6365 93.9664,129.7635 92.5114,143.8044 C90.8595,159.5961 107.0394,159.8716 108.6695,144.239 C111.9199,113.0299 100.9382,73.0804 78.052,59.9716 C79.5887,55.081 80.5408,41.8383 80.5409,37.0973 C80.541,19.7256 69.0686,0.8697 54.9407,0.8698 Z" id="Fill-72" fill-opacity="0.3246" fill="#63A4E1" mask="url(#mask-2)"></path>
                </g>
                <g id="Group-77" transform="translate(775.000000, 82.000000)">
                    <mask id="mask-4" fill="white">
                        <use xlink:href="#path-3"></use>
                    </mask>
                    <g id="Clip-76"></g>
                    <path d="M54.9648,0.0933 C40.8369,0.0933 29.4042,18.9491 29.404,36.3207 C29.404,41.064 30.3587,54.3105 31.893,59.195 C9.0067,72.3037 -1.9749,112.2534 1.2754,143.46245 C2.9056,159.09512 19.0855,158.81938 17.4336,143.02788 C15.9785,128.9869 19.7884,103.86 28.1793,89.6546 C28.2834,98.5295 31.3302,107.9915 31.1818,116.8746 C31.0335,125.75768 24.9398,137.35027 24.9398,147.41311 C24.9398,153.68347 27.0164,174.19695 28.851,198.89011 C30.6855,223.583488 32.264,252.44752 31.4189,272.88584 C30.6639,291.05699 49.5141,291.14382 50.2635,273.04387 C50.92,257.03076 51.0195,161.63546 54.5302,161.63546 C54.6818,161.63541 55.2872,161.6355 55.4388,161.63546 C58.9496,161.63546 59.049,257.03076 59.7056,273.04387 C60.4549,291.14384 79.3052,291.05674 78.5502,272.88584 C77.7051,252.44746 79.2836,223.583488 81.1181,198.89011 C82.9527,174.19687 85.0292,153.68368 85.0292,147.41311 C85.0292,137.35027 78.9356,125.75769 78.7872,116.8746 C78.6388,107.9914 81.6855,98.5295 81.7897,89.6546 C90.1806,103.86 93.9905,128.98695 92.5355,143.02788 C90.8836,158.81955 107.0635,159.09507 108.6937,143.46245 C111.944,112.2534 100.9623,72.3038 78.0761,59.195 C79.6128,54.3045 80.5649,41.0617 80.565,36.3207 C80.5651,18.9491 69.0927,0.0932 54.9648,0.0933 Z" id="Fill-75" fill-opacity="0.3246" fill="#63A4E1" mask="url(#mask-4)"></path>
                </g>
                <g id="Group-80" transform="translate(834.000000, 80.000000)">
                    <mask id="mask-6" fill="white">
                        <use xlink:href="#path-5"></use>
                    </mask>
                    <g id="Clip-79"></g>
                    <path d="M59.5571,0.6177 C53.2856,0.6177 45.167,1.8922 41.0571,7.0864 C36.9471,12.2805 36.5258,23.7229 36.5258,31.6489 C36.5258,43.1688 41.9333,53.0478 49.6821,57.6177 C7.1222,61.1777 -2.9652,109.6102 0.8696,146.43018 C2.5047,162.11096 22.1829,162.27013 20.5258,146.43018 C19.0664,132.34587 19.8279,109.3353 28.2446,95.0864 C28.4531,112.8906 31.5643,131.98993 31.5258,149.80518 C31.397,150.3618 33.5963,235.39687 31.9008,276.39893 C31.1437,294.62573 54.3054,294.55441 55.0571,276.39893 C56.3738,244.27452 56.6936,212.11897 56.7758,179.96143 C57.5239,180.00453 58.274,179.97888 59.0258,179.96143 C59.1577,179.95834 59.3007,179.96422 59.4321,179.96143 C60.1839,179.97891 60.9341,180.00458 61.6821,179.96143 C61.7644,212.11893 62.0842,244.2744 63.4008,276.39893 C64.1525,294.55438 87.3456,294.62567 86.5883,276.39893 C84.893,235.39688 87.0608,150.36182 86.9321,149.80518 C86.8937,131.9899 90.0048,112.8908 90.2133,95.0864 C98.6299,109.3354 99.3916,132.34587 97.9321,146.43018 C96.2751,162.27025 115.9532,162.11095 117.5883,146.43018 C121.423,109.6102 111.3357,61.1779 68.7758,57.6177 C76.5246,53.0478 81.9321,43.1687 81.9321,31.6489 C81.9321,23.7228 81.667,13.0931 77.5571,7.8989 C73.4472,2.7048 65.8287,0.6177 59.5571,0.6177 Z" id="Fill-78" fill-opacity="0.3246" fill="#63A4E1" mask="url(#mask-6)"></path>
                </g>
                <g id="Group-83" transform="translate(0.000000, 94.000000)">
                    <mask id="mask-8" fill="white">
                        <use xlink:href="#path-7"></use>
                    </mask>
                    <g id="Clip-82"></g>
                    <path d="M55.16167,0.527 C41.03376,0.527 29.60107,19.3828 29.60095,36.7545 C29.60093,41.4977 30.55563,54.7442 32.08986,59.6287 C9.20363,72.7374 -1.77797,112.68708 1.4723,143.89617 C3.10251,159.52883 19.28239,159.2531 17.63047,143.4616 C16.1754,129.42061 19.98532,104.2937 28.37624,90.0883 C28.48035,98.9632 31.52714,108.4252 31.37874,117.30828 C31.23039,126.1914 25.13671,137.78398 25.13671,147.84682 C25.13673,154.11718 27.21334,174.63067 29.04785,199.32383 C30.88238,224.0172 32.46094,252.88124 31.61578,273.31956 C30.8608,291.49071 49.71095,291.57753 50.46039,273.47758 C51.11687,257.46448 51.21635,162.06917 54.7271,162.06917 C54.87869,162.06912 55.48414,162.06921 55.63575,162.06917 C59.14651,162.06917 59.24593,257.46448 59.90245,273.47758 C60.65183,291.57755 79.5021,291.49046 78.74707,273.31956 C77.90197,252.88118 79.48047,224.0172 81.31499,199.32383 C83.14956,174.63059 85.2261,154.11739 85.2261,147.84682 C85.2261,137.78398 79.13246,126.19141 78.9841,117.30828 C78.83573,108.4251 81.88245,98.9632 81.98661,90.0883 C90.3775,104.2937 94.1874,129.42066 92.7324,143.4616 C91.0805,159.25326 107.2604,159.52879 108.8906,143.89617 C112.1409,112.68708 101.1592,72.7375 78.27299,59.6287 C79.80972,54.7382 80.76183,41.4955 80.7619,36.7545 C80.76204,19.3828 69.28961,0.5269 55.16167,0.527 Z" id="Fill-81" fill-opacity="0.3246" fill="#63A4E1" mask="url(#mask-8)"></path>
                </g>
                <g id="Group-86" transform="translate(922.000000, 201.000000)">
                    <mask id="mask-10" fill="white">
                        <use xlink:href="#path-9"></use>
                    </mask>
                    <g id="Clip-85"></g>
                    <path d="M54.4388,0.8029 C40.3109,0.8029 28.8782,19.65867 28.8781,37.03034 C28.8781,41.7736 29.8328,55.02008 31.367,59.90462 C8.4808,73.01332 -2.5008,112.962962 0.7495,144.17205 C2.3797,159.80471 18.5595,159.52898 16.9076,143.73748 C15.4526,129.69649 19.2625,104.56958 27.6534,90.36416 C27.7575,99.239073 30.8043,108.70105 30.6559,117.58415 C30.5075,126.46728 24.4139,138.05986 24.4139,148.1227 C24.4139,154.39306 26.4905,174.90655 28.325,199.59971 C30.1595,224.2931 31.7381,253.1571 30.8929,273.5954 C30.138,291.7666 48.9881,291.8534 49.7376,273.7535 C50.394,257.7404 50.4935,162.34505 54.0043,162.34505 C54.1559,162.345 54.7613,162.34509 54.9129,162.34505 C58.4237,162.34505 58.5231,257.7404 59.1796,273.7535 C59.929,291.8534 78.779,291.7663 78.024,273.5954 C77.179,253.1571 78.758,224.2931 80.592,199.59971 C82.427,174.90647 84.503,154.39327 84.503,148.1227 C84.503,138.05986 78.41,126.46729 78.261,117.58415 C78.113,108.701002 81.16,99.239073 81.264,90.36416 C89.655,104.569551 93.465,129.69654 92.01,143.73748 C90.358,159.52914 106.538,159.80466 108.168,144.17205 C111.418,112.962962 100.436,73.0134 77.55,59.90462 C79.087,55.01408 80.039,41.77134 80.039,37.03034 C80.039,19.65866 68.567,0.8028 54.4388,0.8029 Z" id="Fill-84" fill-opacity="0.3246" fill="#63A4E1" mask="url(#mask-10)"></path>
                </g>
                <g id="Group-89" transform="translate(260.000000, 3.000000)">
                    <mask id="mask-12" fill="white">
                        <use xlink:href="#path-11"></use>
                    </mask>
                    <g id="Clip-88"></g>
                    <path d="M67.605,0.9392 C50.0318,0.9392 35.8111,24.3933 35.8109,46.0014 C35.8109,51.9013 36.9984,68.3782 38.9068,74.4539 C10.4394,90.7594 -3.2203,140.4514 0.8226,179.2713 C2.8504,198.7162 22.976,198.3733 20.9212,178.7308 C19.1113,161.2657 23.8504,130.0111 34.2875,112.3415 C34.417,123.3807 38.2068,135.1501 38.0222,146.1995 C37.8377,157.2489 30.258,171.6686 30.258,184.1854 C30.258,191.9849 32.8411,217.50091 35.1229,248.2159 C37.4048,278.93116 39.3684,314.83415 38.3171,340.25669 C37.378,362.85917 60.8251,362.96717 61.7573,340.45325 C62.5738,320.53509 62.6976,201.87609 67.0645,201.87609 C67.253,201.87603 68.0061,201.87614 68.1947,201.87609 C72.5616,201.87609 72.6853,320.53509 73.5019,340.45325 C74.4341,362.96719 97.8813,362.85886 96.9421,340.25669 C95.8909,314.83408 97.8544,278.93116 100.1363,248.2159 C102.4182,217.50081 105.0011,191.9851 105.0012,184.1854 C105.0012,171.6686 97.4215,157.249 97.2369,146.1995 C97.0524,135.1501 100.8421,123.3807 100.9717,112.3415 C111.4088,130.0111 116.1479,161.2657 114.338,178.7308 C112.2832,198.3735 132.4089,198.7162 134.4366,179.2713 C138.4796,140.4514 124.8198,90.7595 96.3524,74.4539 C98.2639,68.3707 99.4482,51.8985 99.4483,46.0014 C99.4485,24.3933 85.1783,0.9391 67.605,0.9392 Z" id="Fill-87" fill-opacity="0.3246" fill="#63A4E1" mask="url(#mask-12)"></path>
                </g>
                <g id="Group-92" transform="translate(332.000000, 51.000000)">
                    <mask id="mask-14" fill="white">
                        <use xlink:href="#path-13"></use>
                    </mask>
                    <g id="Clip-91"></g>
                    <path d="M71.9154,0.4956 C64.3824,0.4956 54.6332,2.038 49.6966,8.2769 C44.76,14.5157 44.2279,28.2879 44.2279,37.8081 C44.2279,51.6411 50.7372,63.4733 60.0404,68.9644 C8.9311,73.2491 -3.1902,131.4297 1.4154,175.65186 C3.3793,194.48654 26.9994,194.67776 25.0091,175.65186 C23.2561,158.73477 24.1809,131.0792 34.2904,113.9644 C34.5408,135.3495 38.3053,158.31596 38.2591,179.71436 C38.1043,180.38293 40.7017,282.52835 38.6654,331.77686 C37.7559,353.6696 65.6063,353.584 66.5091,331.77686 C68.0906,293.19122 68.4728,254.55838 68.5716,215.93311 C69.4701,215.98488 70.3874,215.95418 71.2904,215.93311 C71.4488,215.92941 71.6014,215.93637 71.7591,215.93311 C72.6621,215.95412 73.5794,215.98477 74.4779,215.93311 C74.5767,254.558472 74.9277,293.19131 76.5091,331.77686 C77.412,353.5839 105.2624,353.6697 104.3529,331.77686 C102.3165,282.52805 104.9452,180.38277 104.7904,179.71436 C104.7442,158.31587 108.4774,135.3496 108.7279,113.9644 C118.8373,131.0792 119.7622,158.73473 118.0091,175.65186 C116.0189,194.67786 139.6702,194.48645 141.6341,175.65186 C146.2397,131.4299 134.1184,73.2491 83.0091,68.9644 C92.31,63.4723 98.7904,51.639 98.7904,37.8081 C98.7904,28.2879 98.4457,15.4845 93.5091,9.2456 C88.5725,3.0068 79.4483,0.4956 71.9154,0.4956 Z" id="Fill-90" fill="#335CA0" mask="url(#mask-14)"></path>
                </g>
                <g id="Group-95" transform="translate(61.000000, 8.000000)">
                    <mask id="mask-16" fill="white">
                        <use xlink:href="#path-15"></use>
                    </mask>
                    <g id="Clip-94"></g>
                    <path d="M71.7133,0.2739 C64.1803,0.274 54.4312,1.8163 49.4946,8.0552 C44.558,14.2941 44.0258,28.0662 44.0258,37.5864 C44.0258,51.4188 50.5046,63.2513 59.8071,68.7427 C8.70033,73.0294 -3.42345,131.2091 1.18207,175.4302 C3.14603,194.2649 26.7973,194.4563 24.8071,175.4302 C23.054,158.5131 23.9789,130.8576 34.0883,113.7427 C34.3387,135.1279 38.0719,158.0629 38.0258,179.4614 C37.871,180.13 40.4997,282.3064 38.4633,331.55518 C37.5538,353.44794 65.4042,353.36227 66.3071,331.55518 C67.8885,292.969543 68.2707,254.3367 68.3696,215.71143 C69.268,215.7632 70.1541,215.7325 71.0571,215.71143 C71.2155,215.70773 71.3994,215.71469 71.5571,215.71143 C72.4601,215.73244 73.3461,215.76309 74.2446,215.71143 C74.3434,254.33679 74.7256,292.969635 76.3071,331.55518 C77.2099,353.36224 105.0603,353.44803 104.1508,331.55518 C102.1144,282.30637 104.7431,180.1299 104.5883,179.4614 C104.5422,158.0629 108.2754,135.1281 108.5258,113.7427 C118.6352,130.8575 119.5601,158.513 117.8071,175.4302 C115.8168,194.4562 139.4681,194.2648 141.4321,175.4302 C146.0376,131.2091 133.9138,73.0295 82.8071,68.7427 C92.1095,63.2513 98.5883,51.4187 98.5883,37.5864 C98.5883,28.0663 98.2437,15.2628 93.3071,9.0239 C88.3705,2.785 79.2463,0.2739 71.7133,0.2739 Z" id="Fill-93" fill-opacity="0.3246" fill="#63A4E1" mask="url(#mask-16)"></path>
                </g>
                <g id="Group-98" transform="translate(677.000000, 77.000000)">
                    <mask id="mask-18" fill="white">
                        <use xlink:href="#path-17"></use>
                    </mask>
                    <g id="Clip-97"></g>
                    <path d="M72.362,0.6874 C64.829,0.6876 55.0798,2.1985 50.1432,8.4374 C45.2067,14.6763 44.6745,28.4485 44.6745,37.9687 C44.6744,51.8009 51.1533,63.6648 60.4557,69.1562 C9.349,73.4429 -2.7435,131.62248 1.862,175.84369 C3.8259,194.67838 27.4459,194.86972 25.4557,175.84369 C23.7027,158.92661 24.6276,131.27104 34.737,114.1562 C34.9874,135.54137 38.7207,158.47643 38.6745,179.87494 C38.5197,180.54352 41.1484,282.6889 39.112,331.9374 C38.2025,353.8302 66.0526,353.7445 66.9557,331.9374 C68.5372,293.35181 68.9194,254.71913 69.0182,216.09369 C69.9167,216.14546 70.8342,216.11464 71.737,216.09369 C71.8954,216.09 72.048,216.09708 72.2057,216.09369 C73.1087,216.1147 74.026,216.14548 74.9245,216.09369 C75.0233,254.71906 75.374,293.35184 76.9557,331.9374 C77.8586,353.7445 105.7091,353.8303 104.7995,331.9374 C102.7631,282.68863 105.3916,180.5434 105.237,179.87494 C105.1908,158.47646 108.9241,135.54147 109.1745,114.1562 C119.2839,131.27103 120.2088,158.92661 118.4557,175.84369 C116.4655,194.86969 140.1167,194.67841 142.0807,175.84369 C146.6862,131.62263 134.5624,73.443 83.4557,69.1562 C92.7582,63.6649 99.237,51.801 99.237,37.9687 C99.2368,28.4484 98.8923,15.6763 93.9557,9.4374 C89.0191,3.1987 79.8949,0.6874 72.362,0.6874 Z" id="Fill-96" fill="#335CA0" mask="url(#mask-18)"></path>
                </g>
                <g id="Group-101" transform="translate(162.000000, 0.000000)">
                    <mask id="mask-20" fill="white">
                        <use xlink:href="#path-19"></use>
                    </mask>
                    <g id="Clip-100"></g>
                    <path d="M66.3122,0.2826 C49.1665,0.2826 35.2917,15.7204 35.2916,36.8027 C35.2916,42.5592 38.6099,57.5474 40.4718,63.4753 C12.697,79.384 -2.79,128.9549 1.1545,166.8304 C3.133,185.8022 22.7689,185.4676 20.7642,166.303 C18.9983,149.2628 23.622,118.7687 33.8053,101.5289 C33.9316,112.2995 37.6292,123.7826 37.4491,134.5632 C37.2691,145.3438 29.8738,159.4126 29.8738,171.6249 C29.8738,179.2346 32.394,204.1299 34.6204,234.09764 C36.8467,264.06561 38.7625,299.095154 37.7368,323.89917 C36.8206,345.95178 59.6972,346.05713 60.6067,324.09097 C61.4034,304.657379 61.5241,188.8852 65.7848,188.8852 C65.9688,188.8852 66.7036,188.8853 66.8875,188.8852 C71.1482,188.8852 71.2689,304.657379 72.0656,324.09097 C72.9751,346.05716 95.8519,345.95148 94.9355,323.89917 C93.9099,299.095062 95.8256,264.06561 98.052,234.09764 C100.2784,204.12981 102.7985,179.2349 102.7986,171.6249 C102.7986,159.4126 95.4033,145.3438 95.2232,134.5632 C95.0431,123.7826 98.7407,112.2995 98.8671,101.5289 C109.0503,118.7686 113.6741,149.2628 111.9082,166.303 C109.9034,185.4678 129.5394,185.8022 131.5178,166.8304 C135.4624,128.9549 119.1761,77.6543 91.4014,61.7454 C93.2663,55.8102 97.3807,42.5564 97.3808,36.8027 C97.3809,15.7204 83.4579,0.2825 66.3122,0.2826 Z" id="Fill-99" fill="#63A4E1" mask="url(#mask-20)"></path>
                </g>
                <g id="Group-104" transform="translate(497.000000, 80.000000)">
                    <mask id="mask-22" fill="white">
                        <use xlink:href="#path-21"></use>
                    </mask>
                    <g id="Clip-103"></g>
                    <path d="M59.7792,0.6177 C53.5077,0.6177 45.3892,1.8922 41.2792,7.0864 C37.1692,12.2805 36.748,23.7229 36.748,31.6489 C36.7479,43.1688 42.1554,53.0478 49.9042,57.6177 C7.3443,61.1777 -2.7431,109.6102 1.0917,146.43018 C2.7268,162.11096 22.405,162.27013 20.748,146.43018 C19.2885,132.34587 20.05,109.3353 28.4667,95.0864 C28.6752,112.8906 31.7864,131.98993 31.748,149.80518 C31.6191,150.3618 33.8184,235.39687 32.123,276.39893 C31.3658,294.62573 54.5275,294.55441 55.2792,276.39893 C56.5959,244.27452 56.9157,212.11897 56.998,179.96143 C57.746,180.00453 58.4961,179.97888 59.248,179.96143 C59.3798,179.95834 59.5228,179.96422 59.6542,179.96143 C60.406,179.97891 61.1562,180.00458 61.9042,179.96143 C61.9865,212.11893 62.3063,244.2744 63.623,276.39893 C64.3746,294.55438 87.5677,294.62567 86.8105,276.39893 C85.1151,235.39688 87.2829,150.36182 87.1542,149.80518 C87.1158,131.9899 90.2269,112.8908 90.4355,95.0864 C98.852,109.3354 99.6137,132.34587 98.1542,146.43018 C96.4972,162.27025 116.1753,162.11095 117.8105,146.43018 C121.6452,109.6102 111.5578,61.1779 68.998,57.6177 C76.7467,53.0478 82.1542,43.1687 82.1542,31.6489 C82.1542,23.7228 81.8891,13.0931 77.7792,7.8989 C73.6693,2.7048 66.0508,0.6177 59.7792,0.6177 Z" id="Fill-102" fill-opacity="0.3246" fill="#63A4E1" mask="url(#mask-22)"></path>
                </g>
                <g id="Group-107" transform="translate(593.000000, 61.000000)">
                    <mask id="mask-24" fill="white">
                        <use xlink:href="#path-23"></use>
                    </mask>
                    <g id="Clip-106"></g>
                    <path d="M54.9769,0.5007 C40.849,0.5007 29.4163,19.3565 29.4162,36.7282 C29.4162,41.4715 30.3709,54.718 31.9051,59.6025 C9.0189,72.7112 -1.9627,112.6608 1.2875,143.86992 C2.9178,159.50259 19.0976,159.22685 17.4457,143.43535 C15.9906,129.3944 19.8006,104.2675 28.1915,90.062 C28.2956,98.9369 31.3424,108.3989 31.194,117.282 C31.0456,126.1652 24.952,137.7577 24.952,147.82058 C24.952,154.09094 27.0286,174.60442 28.8631,199.29758 C30.6976,223.99096 32.2762,252.854991 31.431,273.29331 C30.676,291.46446 49.5262,291.55129 50.2756,273.45134 C50.9321,257.43823 51.0316,162.04293 54.5423,162.04293 C54.6939,162.04288 55.2994,162.04297 55.451,162.04293 C58.9618,162.04293 59.0612,257.43823 59.7177,273.45134 C60.4671,291.55131 79.3173,291.46421 78.5623,273.29331 C77.7172,252.854933 79.2957,223.99096 81.1302,199.29758 C82.9648,174.60434 85.0413,154.09115 85.0414,147.82058 C85.0414,137.7577 78.9477,126.1652 78.7994,117.282 C78.651,108.3989 81.6977,98.9369 81.8019,90.062 C90.1927,104.2674 94.0027,129.3944 92.5476,143.43535 C90.8957,159.22702 107.0756,159.50254 108.7058,143.86992 C111.9561,112.6608 100.9744,72.7113 78.0882,59.6025 C79.625,54.712 80.5771,41.4692 80.5771,36.7282 C80.5773,19.3565 69.1049,0.5007 54.9769,0.5007 Z" id="Fill-105" fill="#63A4E1" mask="url(#mask-24)"></path>
                </g>
            </g>
        </g>
    </g>
</svg>