<?xml version="1.0" encoding="UTF-8"?>
<svg width="101px" height="147px" viewBox="0 0 101 147" version="1.1" xmlns="http://www.w3.org/2000/svg" xmlns:xlink="http://www.w3.org/1999/xlink">
    <!-- Generator: Sketch 53.2 (72643) - https://sketchapp.com -->
    <title>Group 79</title>
    <desc>Created with Sketch.</desc>
    <defs>
        <polygon id="path-1" points="0.9005 21.3403 49.0638 0.7505 104.1412 129.5869 55.9779 150.1767"></polygon>
    </defs>
    <g id="Page-18" stroke="none" stroke-width="1" fill="none" fill-rule="evenodd">
        <g id="Group-82" transform="translate(-386.000000, -800.000000)">
            <g id="Group-79" transform="translate(384.000000, 798.000000)">
                <mask id="mask-2" fill="white">
                    <use xlink:href="#path-1"></use>
                </mask>
                <g id="Clip-78"></g>
                <path d="M2.2131,21.8667 C5.8478,30.3688 14.7843,35.8639 25.6949,36.8001 C18.8285,45.324 16.6199,55.5667 20.2819,64.133 C23.9477,72.7079 32.884,78.1896 43.8048,79.1076 C36.9224,87.6363 34.7145,97.8936 38.3804,106.4688 C42.0521,115.0576 51.0165,120.5373 61.9613,121.442 C55.0644,130.0059 52.8605,140.3403 56.5043,148.8641 L62.9237,146.1198 C62.2217,144.4777 61.8304,142.7588 61.7212,141.0011 L93.53,127.4029 C94.7254,128.6962 95.6974,130.1669 96.3994,131.809 L102.8286,129.0605 C99.1836,120.5342 90.188,114.9993 79.2293,114.0717 C86.1414,105.5336 88.3772,95.256 84.7047,86.6652 C81.0389,78.0903 72.0885,72.6029 61.1677,71.685 C68.0507,63.1559 70.272,52.9043 66.6062,44.3294 C62.944,35.7628 54.0135,30.282 43.1074,29.3563 C49.9695,20.8223 52.1721,10.5653 48.5374,2.0631 L42.1082,4.8116 C42.7531,6.3203 43.1254,7.9247 43.2444,9.5831 L11.2966,23.2407 C10.18,22.0087 9.2774,20.6312 8.6325,19.1224 L2.2131,21.8667 Z M14.8601,26.2236 L42.9483,14.2159 C41.8941,19.6275 38.4389,25.2205 32.9994,29.758 L32.9753,29.7566 L32.9597,29.775 C25.9214,30.5717 19.5001,29.2009 14.8601,26.2236 Z M35.8298,36.4339 C42.88,35.6314 49.2992,36.9553 53.9423,39.9329 L25.8441,51.9448 C26.9,46.531 30.3788,40.976 35.8298,36.4339 Z M25.5481,56.5776 L57.4958,42.9199 C58.6154,44.1589 59.5229,45.5479 60.177,47.0779 C60.8187,48.579 61.1967,50.1647 61.326,51.797 L29.3286,65.4759 C28.2379,64.2545 27.343,62.8899 26.7012,61.3888 C26.0472,59.8588 25.6702,58.2433 25.5481,56.5776 Z M32.8524,68.4757 L61.0597,56.4171 C60.0289,61.8641 56.5396,67.4714 51.0526,72.0427 C43.9569,72.8501 37.5028,71.494 32.8524,68.4757 Z M53.9241,78.7597 C60.9144,77.964 67.291,79.2647 71.9247,82.1892 L43.9753,94.1375 C45.0629,88.7672 48.5193,83.2633 53.9241,78.7597 Z M43.6396,98.7872 L75.5179,85.1593 C76.6754,86.4211 77.6055,87.8466 78.2754,89.4137 C78.9013,90.8777 79.2793,92.4169 79.4175,94.0067 L47.3407,107.7195 C46.2871,106.5214 45.4256,105.1885 44.7997,103.7245 C44.1298,102.1574 43.7515,100.4957 43.6396,98.7872 Z M50.8347,110.732 L79.181,98.614 C78.1826,104.1035 74.6792,109.7594 69.1468,114.3686 C61.9924,115.1826 55.493,113.8029 50.8347,110.732 Z M72.048,121.155 C78.9939,120.3644 85.2962,121.5687 89.917,124.4413 L62.0768,136.3429 C63.1931,131.0178 66.6768,125.63 72.048,121.155 Z" id="Fill-77" fill-opacity="0.1642" fill="#96D6EA" mask="url(#mask-2)"></path>
            </g>
        </g>
    </g>
</svg>