<?xml version="1.0" encoding="UTF-8"?>
<svg width="770px" height="203px" viewBox="0 0 770 203" version="1.1" xmlns="http://www.w3.org/2000/svg" xmlns:xlink="http://www.w3.org/1999/xlink">
    <!-- Generator: Sketch 53.2 (72643) - https://sketchapp.com -->
    <title>SpectrumBiobank</title>
    <desc>Created with Sketch.</desc>
    <defs>
        <polygon id="path-1" points="0 0.8521 295 0.8521 295 74.5041504 0 74.5041504"></polygon>
    </defs>
    <g id="Page-1" stroke="none" stroke-width="1" fill="none" fill-rule="evenodd">
        <g id="Group-92" transform="translate(-212.000000, -417.000000)">
            <g id="SpectrumBiobank" transform="translate(211.940200, 417.024000)">
                <g id="BIOBANK" transform="translate(213.059800, 145.976000)">
                    <mask id="mask-2" fill="white">
                        <use xlink:href="#path-1"></use>
                    </mask>
                    <g id="Clip-60"></g>
                    <text mask="url(#mask-2)" font-family="AvenirNext-Bold, Avenir Next" font-size="56" font-weight="bold" letter-spacing="4.19999981" fill="#FFFFFF">
                        <tspan x="0" y="54.5041504">BIOBAN</tspan>
                        <tspan x="250.207999" y="54.5041504">K</tspan>
                    </text>
                </g>
                <path d="M51.9214,7.10542736e-15 C46.3172,7.10542736e-15 40.771,0.7035 35.2898,2.1207 C29.8018,3.538 24.8422,5.7737 20.475,8.8364 C16.1078,11.8923 12.6089,15.8077 9.923,20.5713 C7.2303,25.3279 5.8699,31.0638 5.8699,37.7493 C5.87,43.1834 6.7196,47.7386 8.4555,51.5342 C10.1914,55.3298 12.5238,58.5642 15.3737,61.219 C18.2306,63.8876 21.4445,66.0925 25.0872,67.7933 C28.723,69.4871 32.4614,71.0024 36.2681,72.2469 C40.1843,73.4913 43.6679,74.6391 46.7502,75.7108 C49.8256,76.7894 52.4294,77.9386 54.507,79.2453 C56.5779,80.5452 58.138,82.045 59.2589,83.6282 C60.3797,85.2184 60.936,87.0866 60.936,89.3542 C60.936,91.7325 60.5036,93.8037 59.6083,95.5044 C58.7129,97.1983 57.5548,98.5175 56.0444,99.5338 C54.534,100.5571 52.7496,101.3466 50.7334,101.796 C48.7172,102.2523 46.6395,102.4322 44.514,102.4322 C39.812,102.4322 35.085,101.2605 30.3282,98.8269 C25.5646,96.3933 21.7094,93.3304 18.7979,89.7077 L0,109.0772 C5.2624,114.6289 11.8909,118.9426 19.8461,121.9431 C27.7945,124.9436 36.0052,126.3967 44.514,126.3967 C50.3369,126.3968 56.0139,125.654 61.4951,124.0639 C66.9831,122.4806 71.8424,119.9959 76.1002,116.7119 C80.3512,113.4279 83.7178,109.3103 86.2329,104.2702 C88.7547,99.2302 90.0065,93.2282 90.0065,86.3145 C90.0065,80.3135 88.8634,75.2809 86.5124,71.2572 C84.1614,67.2404 81.1489,63.8653 77.5677,61.1483 C73.9796,58.4312 70.0551,56.2901 65.6879,54.6446 C61.3208,53.006 57.1348,51.4755 53.1094,50.1204 C50.3073,49.2147 47.7272,48.3552 45.4924,47.5048 C43.2507,46.6544 41.312,45.7004 39.6923,44.6771 C38.0657,43.6608 36.8991,42.5045 36.0585,41.1425 C35.2178,39.7875 34.8006,38.0923 34.8006,36.0527 C34.8006,33.6744 35.2718,31.7133 36.338,30.1853 C37.4042,28.6574 38.7493,27.4066 40.3212,26.4387 C41.8863,25.4778 43.6707,24.7981 45.6321,24.4593 C47.5868,24.1206 49.4556,23.9645 51.3624,23.9645 C55.0598,23.9645 58.9219,24.9185 62.8927,26.7921 C66.8703,28.6589 70.0759,31.119 72.5362,34.2854 C72.5362,34.2854 90.845,14.7745 90.845,14.7745 C85.5826,9.9074 79.4648,6.2425 72.4664,3.7466 C65.468,1.2578 58.6396,7.10542736e-15 51.9214,7.10542736e-15 Z" id="Fill-62" fill="#96EAA5"></path>
                <path d="M107.3369,38.5976 L107.3369,163.9339 L110.6213,163.9339 C114.0705,122.6118 119.3135,80.2658 127.6722,38.5976 L107.3369,38.5976 Z" id="Fill-64" fill="#96EAA5"></path>
                <path d="M160.7258,36.1941 C154.5681,36.1942 149.2611,37.4604 144.7231,40.0115 C140.1852,42.5627 136.6079,45.524 134.0314,48.9186 L133.5422,48.9186 L133.5422,38.5976 L116.4214,38.5976 C113.2863,58.4578 110.3554,75.9212 107.3369,94.3734 L107.3369,163.9339 L134.8699,163.9339 L134.8699,113.8136 L135.2193,113.8136 C137.796,117.4432 141.3883,120.3431 145.981,122.4379 C150.5737,124.5329 155.4398,125.5484 160.5861,125.5484 C166.8601,125.5484 172.4299,124.2975 177.3575,121.8017 C182.2851,119.3128 186.449,116.0392 189.8662,111.9049 C193.2833,107.7705 195.8954,102.9886 197.6928,97.5545 C199.4835,92.1204 200.4182,86.4152 200.4182,80.5178 C200.4181,74.6343 199.475,69.0013 197.6229,63.6225 C195.7776,58.2436 193.1436,53.4925 189.7264,49.4135 C186.3092,45.3345 182.1453,42.1069 177.2177,39.7287 C172.2902,37.3504 166.7743,36.1941 160.7258,36.1941 Z M154.0173,58.9568 C157.2637,58.9568 160.1523,59.6211 162.6126,60.8655 C165.0798,62.11 167.0725,63.6952 168.6923,65.6725 C170.3188,67.6567 171.5553,69.9301 172.3959,72.5296 C173.2366,75.1362 173.6538,77.8007 173.6538,80.5178 C173.6538,83.2418 173.2366,85.9856 172.3959,88.6473 C171.5554,91.309 170.3188,93.6063 168.6923,95.6458 C167.0724,97.6854 165.0799,99.3498 162.6126,100.5942 C160.1522,101.8456 157.2636,102.4322 154.0173,102.4322 C150.8804,102.4322 148.092,101.8456 145.6316,100.5942 C143.1712,99.3498 141.0714,97.6854 139.3423,95.6458 C137.5997,93.6063 136.2392,91.3245 135.2892,88.718 C134.3325,86.1116 133.8916,83.4469 133.8916,80.7299 C133.8916,78.0127 134.3324,75.3481 135.2892,72.7417 C136.2391,70.1353 137.5996,67.7828 139.3423,65.7432 C141.0714,63.7039 143.1712,62.11 145.6316,60.8655 C148.0921,59.6211 150.8803,58.9568 154.0173,58.9568 Z" id="Fill-66" fill="#ABE792"></path>
                <path d="M253.3179,36.7596 C249.3963,37.2521 245.6154,38.0558 242.0671,39.4459 C236.5792,41.596 231.7738,44.5814 227.7416,48.4945 C223.7161,52.4007 220.5888,57.1672 218.2378,62.7742 C215.8799,68.3812 214.6738,74.6714 214.6738,81.5782 C214.6738,88.713 215.8951,95.0495 218.3076,100.5942 C220.7133,106.1459 224.0276,110.7956 228.2307,114.5912 C231.3326,117.3969 234.9143,119.5644 238.7827,121.3776 C239.9442,112.2095 241.2159,103.0486 242.6262,93.8785 C241.8751,92.3027 241.1946,90.7172 241.0189,88.8594 L243.4647,88.8594 C244.3839,83.0884 245.1573,77.2965 246.1901,71.5399 C244.9053,71.5399 241.0189,71.5399 241.0189,71.5399 C241.1283,69.3898 241.6846,67.3033 242.6961,65.3191 C243.7008,63.3348 245.0747,61.6312 246.7491,60.1586 C247.3153,59.6627 248.076,59.3822 248.7058,58.9568 C250.1563,51.5366 251.6475,44.1253 253.3179,36.7596 Z" id="Fill-68" fill="#ABE792"></path>
                <path d="M259.8867,36.1941 C253.5102,36.1942 247.5551,37.2958 242.0671,39.4459 C238.1459,40.9822 234.6921,43.0901 231.5151,45.5254 C229.4127,67.9666 227.0087,89.5284 224.3873,110.279 C225.6055,111.7683 226.8052,113.3038 228.2307,114.5912 C232.4271,118.3869 237.3084,121.3089 242.9057,123.2862 C248.5029,125.2705 254.4582,126.2553 260.7253,126.2553 C269.2341,126.2553 276.6492,124.7077 283.0872,121.5896 C289.5251,118.4785 294.7545,114.0087 298.6706,108.2289 L279.5232,95.9993 C277.6164,98.6057 275.1435,100.723 272.1159,102.3615 C269.0951,104.007 265.372,104.8357 261.0048,104.8357 C258.5445,104.8357 256.1733,104.4221 253.877,103.634 C251.5806,102.8389 249.5029,101.7288 247.6576,100.3114 C245.8055,98.9009 244.2908,97.2213 243.1153,95.2923 C241.9398,93.3705 241.2444,91.2446 241.0189,88.8594 L301.6755,88.8594 C301.7848,87.843 301.8152,86.7414 301.8152,85.6076 C301.8152,84.4738 301.8152,83.3483 301.8152,82.2144 C301.8151,74.9689 300.8113,68.5141 298.7405,62.8449 C296.6629,57.1825 293.7727,52.3922 290.0752,48.4238 C286.3778,44.4622 281.9442,41.3994 276.7979,39.3045 C271.6447,37.2098 266.0445,36.1941 259.8867,36.1941 Z M260.0265,55.4222 C265.5146,55.4222 269.6548,56.9922 272.3954,60.1586 C275.1428,63.332 276.5184,67.1221 276.5184,71.5399 C276.5184,71.5399 241.0189,71.5399 241.0189,71.5399 C241.1283,69.3898 241.6846,67.3033 242.696,65.3191 C243.7008,63.3348 245.0747,61.6312 246.7491,60.1586 C248.4303,58.6861 250.3774,57.5451 252.6191,56.6947 C254.854,55.8443 257.3406,55.4222 260.0265,55.4222 Z" id="Fill-70" fill="#D7E277"></path>
                <path d="M359.956,36.1941 C353.4634,36.1941 347.2977,37.2098 341.5774,39.3045 C337.4577,40.8114 333.8779,43.0107 330.5362,45.4547 C328.2542,65.4828 326.0323,87.4112 323.8975,111.0566 C324.832,112.1232 325.6474,113.2707 326.6928,114.2377 C330.9164,118.1441 335.8502,121.176 341.5774,123.2155 C347.2977,125.255 353.4869,126.2553 360.0958,126.2553 C366.2536,126.2553 372.078,125.2858 377.566,123.3569 C383.0471,121.4349 387.5113,118.7703 390.9831,115.3688 L375.7491,96.4941 C374.0746,98.5336 371.851,100.0881 369.1104,101.1597 C366.363,102.2383 363.5899,102.7857 360.7946,102.7857 C357.7739,102.7857 355.0243,102.2229 352.6186,101.0891 C350.2128,99.9552 348.1351,98.4076 346.3992,96.4234 C344.6633,94.446 343.3811,92.1728 342.4858,89.5663 C341.5907,86.9598 341.0882,84.1699 341.0882,81.2247 C341.0882,78.2795 341.5989,75.4896 342.5557,72.8831 C343.5058,70.2836 344.7878,68.0103 346.469,66.026 C348.1502,64.0487 350.1976,62.4788 352.5487,61.2897 C354.8997,60.1007 357.5338,59.4517 360.4452,59.4517 C363.2405,59.4517 366.0052,60.1159 368.6911,61.3603 C371.377,62.6116 373.4784,64.1985 375.0503,66.2381 C375.0503,66.238 390.9831,47.5755 390.9831,47.5755 C389.3018,45.8748 387.3396,44.3271 385.0433,42.9098 C382.7468,41.4924 380.2435,40.2656 377.4961,39.3045 C374.7556,38.3436 371.8669,37.6094 368.9008,37.0424 C365.9346,36.4755 362.9836,36.1941 359.956,36.1941 Z" id="Fill-72" fill="#F4DC51"></path>
                <path d="M359.9561,36.1941 C353.4635,36.1941 347.2977,37.2098 341.5774,39.3045 C335.8502,41.3994 330.9165,44.4469 326.6928,48.3531 C322.4623,52.2594 319.1192,57.0174 316.6998,62.5621 C314.2736,68.1138 313.066,74.311 313.066,81.2247 C313.066,88.249 314.2736,94.5477 316.6998,100.0994 C319.1192,105.6441 322.4623,110.3245 326.6928,114.2377 C330.9165,118.1441 335.8502,121.176 341.5774,123.2155 C347.0886,125.1805 353.0606,126.113 359.397,126.1846 C360.4904,118.2352 361.8104,110.3021 363.1007,102.3615 C362.3305,102.4441 361.5681,102.7857 360.7946,102.7857 C357.774,102.7857 355.0243,102.2229 352.6186,101.0891 C350.2128,99.9552 348.1351,98.4076 346.3992,96.4234 C344.6633,94.446 343.3811,92.1728 342.4859,89.5663 C341.5907,86.9598 341.0882,84.1699 341.0882,81.2247 C341.0882,78.2795 341.5989,75.4896 342.5557,72.8831 C343.5058,70.2836 344.7878,68.0103 346.4691,66.026 C348.1503,64.0487 350.1976,62.4788 352.5487,61.2897 C354.8997,60.1007 357.5338,59.4517 360.4452,59.4517 C363.2405,59.4517 366.0052,60.1159 368.6912,61.3603 C369.4626,61.7197 369.8289,62.3506 370.5081,62.7742 C372.2071,54.7882 374.0584,46.8587 376.0286,38.9511 C373.7209,38.2081 371.3632,37.5131 368.9008,37.0424 C365.9346,36.4755 362.9837,36.1941 359.9561,36.1941 Z" id="Fill-74" fill="#D7E277"></path>
                <path d="M404.6099,18.0971 L404.6099,40.3649 L391.3325,40.3649 L391.3325,61.0776 L404.7497,61.0776 L404.7497,96.8476 C404.7496,101.3898 405.2824,105.5267 406.287,109.2186 C407.2986,112.9105 408.9523,116.0934 411.2486,118.762 C413.5448,121.4306 416.5962,123.4949 420.403,124.9121 C424.2097,126.3295 428.9215,127.0329 434.5189,127.0329 C437.4305,127.0329 440.3425,126.7669 443.254,126.2553 C446.1654,125.7505 448.5449,125.1725 450.4517,124.488 L450.1023,104.0581 C449.0908,104.5144 447.8391,104.8903 446.3287,105.1185 C444.8185,105.3467 443.4124,105.4012 442.066,105.4012 C438.1431,105.4012 435.4003,104.4233 433.89,102.4322 C432.3797,100.441 431.6538,97.5073 431.6538,93.5251 L431.6538,61.0776 C431.6538,61.0776 451.2903,61.0776 451.2903,61.0776 L451.2903,40.3649 L431.6538,40.3649 L431.6538,18.0971 L404.6099,18.0971 Z" id="Fill-76" fill="#F4DC51"></path>
                <path d="M514.6722,36.1941 C509.5191,36.1941 504.9616,37.5564 501.0454,40.2942 C497.1226,43.0322 494.1562,46.57 492.0308,50.898 L491.6814,50.898 L491.6814,38.6683 L486.3705,38.6683 C483.621,64.2868 480.1147,91.937 475.1196,123.2155 L492.6597,123.2155 L492.6597,79.8109 C492.6598,78.117 493.0313,76.1336 493.7079,73.8728 C494.3777,71.6121 495.412,69.5032 496.9225,67.5812 C498.4328,65.6591 500.4802,64.0586 503.0021,62.7035 C505.5171,61.3485 508.5988,60.6534 512.2962,60.6534 C513.4102,60.6534 514.6079,60.748 515.7903,60.8655 C516.9658,60.9762 518.1172,61.1629 519.3542,61.5017 C519.3543,61.5017 520.5422,36.901 520.5422,36.901 C519.8723,36.6797 519.0228,36.4462 517.9566,36.3355 C516.8902,36.225 515.7862,36.1941 514.6722,36.1941 Z" id="Fill-78" fill="#F9BE4C"></path>
                <path d="M465.1267,38.6683 L465.1267,123.2155 L484.5536,123.2155 C487.061,107.3322 489.9323,91.4964 493.3585,75.7814 C493.5057,75.1136 493.4902,74.6003 493.708,73.8728 C493.7288,73.8023 493.7561,73.7309 493.7778,73.6607 C496.3059,62.2272 499.1925,50.9052 502.3033,39.658 C501.8995,39.9043 501.4369,40.0206 501.0454,40.2942 C497.1226,43.0322 494.1562,46.57 492.0308,50.898 L491.6814,50.898 L491.6814,38.6683 L465.1267,38.6683 Z" id="Fill-80" fill="#F4DC51"></path>
                <path d="M588.1169,38.4563 C587.07,41.9416 585.9306,45.0912 584.9024,48.6359 L584.9024,84.1938 C584.9024,89.0679 583.6508,93.2955 581.1289,96.9183 C578.8473,100.2111 575.4483,101.8444 571.2757,102.1494 C569.6536,109.3282 568.1583,116.9832 566.6635,124.5587 C567.3212,124.4129 568.0493,124.4678 568.6901,124.2759 C571.3214,123.4811 573.7008,122.4807 575.8878,121.2362 C578.0681,119.9917 579.9915,118.4764 581.618,116.7826 C583.238,115.0819 584.5897,113.2683 585.6012,111.3394 L585.8808,111.3394 L585.8808,123.0742 C585.8808,123.0742 612.4355,123.0742 612.4355,123.0742 L612.4355,38.4563 L588.1169,38.4563 Z" id="Fill-82" fill="#FAA94C"></path>
                <path d="M529.9761,38.4563 L529.9761,90.7681 C529.9759,95.0684 530.524,99.2944 531.5833,103.4219 C532.6497,107.5632 534.3488,111.2918 536.7545,114.5205 C539.1603,117.7493 542.3201,120.3277 546.1884,122.3673 C550.05,124.4068 554.7769,125.4777 560.3742,125.4777 C563.2857,125.4776 566.0588,125.064 568.6901,124.2759 C571.3214,123.4811 573.7008,122.4807 575.8878,121.2362 C578.0681,119.9917 579.9914,118.4764 581.618,116.7826 C583.238,115.0819 584.5897,113.2683 585.6012,111.3394 L585.8807,111.3394 L585.8807,123.0742 C585.8808,123.0742 604.406,123.0742 609.2908,123.0742 C610.2304,117.7735 611.3926,112.5206 612.4355,107.2392 L612.4355,38.4563 L584.9024,38.4563 L584.9024,84.1938 C584.9024,89.0679 583.6508,93.2955 581.1288,96.9183 C578.6139,100.5479 574.8991,102.3615 570.0877,102.3615 C567.5112,102.3616 565.4402,101.838 563.8683,100.877 C562.3031,99.916 561.0447,98.619 560.0947,96.9183 C559.1448,95.2245 558.5428,93.2717 558.2079,91.1215 C557.8733,88.9713 557.7188,86.7135 557.7188,84.3351 L557.7188,38.4563 L529.9761,38.4563 Z" id="Fill-84" fill="#F9BE4C"></path>
                <path d="M687.138,36.1941 C684.008,36.1942 681.1041,36.6077 678.4728,37.3959 C676.8492,37.8864 675.5033,38.6208 674.0703,39.3045 C673.455,46.217 672.9187,53.2116 672.2534,60.0879 C673.5975,59.6105 674.9759,59.1689 676.586,59.1689 C680.7277,59.1688 683.6939,60.5827 685.6007,63.4104 C687.5074,66.245 688.4658,70.0659 688.4658,74.9331 L688.4658,123.2155 L715.9988,123.2155 L715.9988,77.478 C715.9989,75.0998 716.277,72.8264 716.8374,70.621 C717.3979,68.4085 718.3174,66.4544 719.4929,64.7535 C720.6685,63.0528 722.0895,61.6698 723.8255,60.6534 C725.5613,59.6372 727.624,59.1689 729.975,59.1689 C732.4354,59.1689 734.4044,59.6217 735.9149,60.5827 C737.4252,61.5438 738.6533,62.8099 739.5487,64.4001 C740.444,65.9833 741.0307,67.9207 741.3656,70.1261 C741.7075,72.3318 741.9246,74.605 741.9246,76.9832 L741.9246,123.2155 C741.9246,123.2155 769.4577,123.2155 769.4577,123.2155 L769.4577,70.833 C769.4576,66.8646 768.9166,62.8153 767.8504,58.6741 C766.7841,54.5466 765.1001,50.851 762.7491,47.5048 C760.3981,44.1653 757.2465,41.3993 753.3851,39.3045 C749.5166,37.2097 744.773,36.1941 739.0595,36.1941 C732.7922,36.1941 727.424,37.4826 723.0568,40.0822 C718.6898,42.6886 715.1603,46.1973 712.365,50.6152 C710.014,45.9692 706.715,42.4297 702.5118,39.9408 C698.3157,37.4519 693.1864,36.1941 687.138,36.1941 Z" id="Fill-86" fill="#FA9B4C"></path>
                <path d="M687.1381,36.1941 C684.008,36.1942 681.1041,36.6077 678.4729,37.3959 C675.8415,38.1909 673.4705,39.2065 671.345,40.5063 C669.2196,41.8061 667.4047,43.3298 665.8943,45.0306 C664.3771,46.7313 663.1254,48.5211 662.1207,50.3324 L661.7713,50.3324 L661.7713,38.5976 L635.0769,38.5976 L635.0769,123.2155 L662.8195,123.2155 L662.8195,77.3367 C662.8194,72.2412 663.9778,67.9122 666.3835,64.4001 C668.7891,60.8879 672.2189,59.1689 676.5861,59.1689 C680.7278,59.1688 683.6939,60.5827 685.6007,63.4104 C687.5074,66.245 688.4658,70.0659 688.4658,74.9331 L688.4658,123.2155 L715.9989,123.2155 L715.9989,77.478 C715.9989,75.0998 716.277,72.8264 716.8374,70.621 C717.3979,68.4085 718.3174,66.4544 719.4929,64.7535 C720.6685,63.0528 722.0895,61.6698 723.8255,60.6534 C725.5613,59.6372 727.624,59.1689 729.975,59.1689 C732.4354,59.1689 734.4045,59.6217 735.9149,60.5827 C737.4252,61.5438 738.6533,62.8099 739.5487,64.4001 C740.444,65.9833 741.0307,67.9207 741.3656,70.1261 C741.7075,72.3318 741.9246,74.605 741.9246,76.9832 L741.9246,90.6267 C746.0361,73.9472 750.8328,57.5122 756.3201,41.3546 C755.3581,40.6715 754.4648,39.8903 753.3851,39.3045 C749.5167,37.2097 744.773,36.1941 739.0595,36.1941 C732.7922,36.1941 727.424,37.4826 723.0568,40.0822 C718.6899,42.6886 715.1604,46.1973 712.365,50.6152 C710.0141,45.9692 706.715,42.4297 702.5119,39.9408 C698.3157,37.4519 693.1864,36.1941 687.1381,36.1941 Z" id="Fill-88" fill="#FAA94C"></path>
            </g>
        </g>
    </g>
</svg>